<svg xmlns="http://www.w3.org/2000/svg" viewBox="0 0 64 64">
  <defs>
    <linearGradient id="bg" x1="0" y1="0" x2="1" y2="1">
      <stop offset="0%" stop-color="#0F766E" />
      <stop offset="100%" stop-color="#115E59" />
    </linearGradient>
  </defs>
  <rect width="64" height="64" rx="14" fill="url(#bg)" />
  <path
    d="M22 16h14c7.2 0 12 4.1 12 10.2 0 4.5-2.6 7.7-6.7 9.1 5 1.2 8.2 4.9 8.2 10.3C49.5 52.3 43.9 56 36 56H22V16zm7 6v10h6.1c3.8 0 5.9-1.8 5.9-4.9 0-3.2-2.1-5.1-5.9-5.1H29zm0 15.8V50h7.2c4.1 0 6.4-2.2 6.4-5.7 0-3.8-2.3-6.5-6.4-6.5H29z"
    fill="#FFFFFF"
  />
</svg>
